PathFileType	4	(X/Y/Z)	/mnt/data/output.trc
DataRate	CameraRate	NumFrames	NumMarkers	Units	OrigDataRate	OrigDataStartFrame	OrigNumFrames
100	100	6	17	mm	100	1984	3966
Frame#	Time	nosex	nosey	nosez	lefteyex	lefteyey	lefteyez	righteyex	righteyey	righteyez	leftearx	lefteary	leftearz	rightearx	righteary	rightearz	leftshoulderx	leftshouldery	leftshoulderz	rightshoulderx	rightshouldery	rightshoulderz	leftelbowx	leftelbowy	leftelbowz	rightelbowx	rightelbowy	rightelbowz	leftwristx	leftwristy	leftwristz	rightwristx	rightwristy	rightwristz	lefthipx	lefthipy	lefthipz	righthipx	righthipy	righthipz	leftkneex	leftkneey	leftkneez	rightkneex	rightkneey	rightkneez	leftanklex	leftankley	leftanklez	rightanklex	rightankley	rightanklez
		1	1	1	2	2	2	3	3	3	4	4	4	5	5	5	6	6	6	7	7	7	8	8	8	9	9	9	10	10	10	11	11	11	12	12	12	13	13	13	14	14	14	15	15	15	16	16	16	17	17	17
1984	19.84	-79.10687732047941	-566.9396356752343	3260.640585548823	-49.40955252755136	-594.6880769978732	3276.441780634072	-93.28554262049175	-593.9003326315993	3280.2846190589767	7.733824704687948	-584.9029908248286	3373.272456293047	-147.25684609040871	-586.4157513951714	3385.8039610859114	89.55252941891882	-403.66755290131806	3432.1757960749733	-232.29654342889287	-413.6534661047744	3432.898555228634	141.97905551374066	-132.3812466815047	3420.565663150566	-293.17965464864704	-151.16996412517662	3453.088679139866	144.4993355073633	63.54115225579179	3368.115174405892	-301.8683126073136	72.71365993629348	3390.1236706142627	23.6456524227248	21.90002589743809	3450.3298052708924	-186.0025437901157	14.0407687502516	3454.212645364068	8.553929921364256	426.28895715461215	3534.652883137273	-154.27665566025806	428.4133192476127	3526.84110538948	18.494901640399423	792.177095733747	3546.16024884644	-144.16904627866194	793.2519831149579	3557.7513724864825
1985	19.85	-79.06877265854853	-567.0437542631216	3260.7575839750534	-49.37271438234552	-594.782118472136	3276.559095797294	-93.25104649963096	-594.0064687512391	3280.4009638526386	7.773936794537658	-584.99764199501	3373.3938033911004	-147.22855281395758	-586.5100761476812	3385.922278606387	89.6000652340367	-403.7541793714482	3432.3112588797494	-232.27474902728747	-413.7391786593118	3433.026327586803	140.61081187649063	-130.4414544295163	3414.8763035257457	-293.163334997597	-151.24189177299087	3453.225244574926	144.55346793708551	63.48233788533567	3368.260229519426	-301.8528749938761	72.65777664300855	3390.260944073159	23.686228676533386	21.83807699808796	3450.4782042241704	-185.9770923976544	13.979106106134886	3454.3552846920693	8.3812672389436	426.5520369477122	3532.122094964328	-154.2496019625008	428.3768993578082	3526.983919243524	18.53619084341952	792.1657116354928	3546.293725272529	-144.141581577406	793.2407868817696	3557.882333200055
1986	19.86	-79.02507504031965	-567.044960281904	3260.8209865692747	-49.32384721623333	-594.7855561719156	3276.620666792988	-93.20866936678728	-594.0071291105589	3280.463493499617	7.818952865859339	-585.0013855266939	3373.451570402028	-147.18215154791258	-586.5138504484555	3385.978250840408	89.64328274536769	-403.7623426135932	3432.3691437092216	-232.22297127773277	-415.0837676713757	3433.0017357256006	138.3459010353079	-130.50221184899365	3415.216888382633	-293.11626494131644	-151.25701401839385	3453.2806323945147	144.59913763775694	63.463098666827975	3368.321908188281	-301.8054902333859	72.63742640600469	3390.319768841492	23.404242185871087	20.49717462117745	3450.348399878723	-185.9322084749369	13.96017349982096	3454.413472038605	9.190585496667476	427.6332764412117	3534.83744346758	-154.20745115597538	428.3470357740197	3527.039388802966	18.57509982166087	792.1264709939643	3546.347835084369	-144.1017716550553	793.2012619281898	3557.934652012629
1987	19.87	-78.89400260522375	-567.0762269970753	3260.826767973545	-49.20635534123128	-594.8118470966905	3276.6275089755454	-95.63881022062604	-593.9837478057116	3279.2783559155687	7.933020260370486	-585.0306713353506	3373.4796135851398	-147.50192940165016	-586.2772765497988	3383.440326957009	89.76198265670028	-403.78965707441785	3432.4097859250915	-232.10734286190024	-415.101688253536	3433.013226876931	138.47316486825886	-130.52120129778206	3415.256188171744	-291.12773599022256	-151.42393659492038	3455.114564212472	144.7293189770528	63.44424480014577	3368.3615711635216	-301.8407972683939	71.32728642629493	3389.684258143645	23.53208522689159	20.4850120736901	3450.386602366417	-185.96410637488708	12.67335266431952	3453.8997434081853	8.54535444444627	426.5220234505983	3532.2184449920805	-154.0864785143089	428.3511828814687	3527.06410828176	18.693736588163564	792.1351517745792	3546.385250961825	-143.98731688699152	793.21515580368	3557.962400495971
1988	19.88	-78.90574888398618	-568.5621422976287	3260.82853452784	-49.20562091633678	-594.8236428047162	3276.6501553979733	-95.61263186500496	-593.9964962233745	3279.2966855550967	7.9351604341068835	-585.042651813944	3373.5036733712977	-147.06727708938072	-586.5510743510735	3386.0180931580853	89.85022853586902	-405.15460342845086	3432.39060086628	-232.10471900880825	-415.11365277636605	3433.038820903897	140.78489979632522	-130.48666019045322	3415.0016470278665	-291.1253100816451	-151.43551559288983	3455.1412143086777	144.72966276732265	63.43304015365474	3368.3887990883586	-301.8401407970501	71.31663589543335	3389.710950896689	23.821665942121555	19.062843017102377	3450.659510647854	-185.9629924605454	12.662401352190102	3453.9267488765267	8.547675669104482	426.5119880637018	3532.245669694488	-154.08459284777766	428.3410811756805	3527.091808440051	18.695397765149234	792.1263139759518	3546.410729610231	-143.98612221180625	793.2061080440586	3557.98833700613
1989	19.89	-78.87384330145296	-568.5087582812341	3260.776132198199	-49.18405236593671	-594.7745666348326	3276.598433436697	-95.58110361074333	-593.9422217327992	3279.243533433242	7.945385882135993	-586.2457895189867	3373.449945617552	-147.0417905943227	-586.5001210683758	3385.954011452317	89.87870052742736	-405.11226900610194	3432.33960911366	-232.16487639757187	-416.3995748467813	3432.9199032029187	138.506102479061	-130.49816174494174	3415.236162668973	-291.3110510518032	-152.7833211758771	3454.956353205217	144.75979287595928	63.460624703504166	3368.346875448031	-301.80599202974935	71.3540833866734	3389.6420060797045	23.890001552241635	21.827817039005552	3450.5512625491297	-185.92766974685637	12.698754358790794	3453.8595475312754	9.348695680164983	427.6429147728548	3534.846475478462	-154.0508619928532	428.363463065523	3527.0262960395744	18.721071846359017	792.1344958117056	3546.3533641064623	-143.9581870163864	793.2170622877694	3557.9226221381005
